<mxfile host="app.diagrams.net" agent="Mozilla/5.0 (Macintosh; Intel Mac OS X 10_15_7) AppleWebKit/537.36 (KHTML, like Gecko) Chrome/140.0.0.0 Safari/537.36" version="28.2.5">
  <diagram id="bJ2h2rBeApOk9wuypI2v" name="Page-1">
    <mxGraphModel dx="2207" dy="2024" grid="1" gridSize="10" guides="1" tooltips="1" connect="1" arrows="1" fold="1" page="1" pageScale="1" pageWidth="850" pageHeight="1100" math="0" shadow="0">
      <root>
        <mxCell id="0" />
        <mxCell id="1" parent="0" />
        <mxCell id="BT9CDqWoZ7SacNBzeMXs-53" value="&lt;p style=&quot;margin:0px;margin-top:4px;text-align:center;&quot;&gt;&lt;i&gt;&amp;lt;&amp;lt;Component&amp;gt;&amp;gt;&lt;/i&gt;&lt;br&gt;&lt;b&gt;SpreadsheetComponent&lt;/b&gt;&lt;/p&gt;&lt;hr size=&quot;1&quot; style=&quot;border-style:solid;&quot;&gt;&lt;p style=&quot;margin:0px;margin-left:4px;&quot;&gt;+ selectedRows: Set&amp;lt;Number&amp;gt;&lt;br&gt;+ selectedCols: Set&amp;lt;Number&amp;gt;&lt;/p&gt;&lt;hr size=&quot;1&quot; style=&quot;border-style:solid;&quot;&gt;&lt;p style=&quot;margin:0px;margin-left:4px;&quot;&gt;+ children(Number, Number): ReactNode&lt;br&gt;&lt;/p&gt;" style="verticalAlign=top;align=left;overflow=fill;html=1;whiteSpace=wrap;fillColor=#dae8fc;strokeColor=#6c8ebf;" vertex="1" parent="1">
          <mxGeometry x="40" y="400" width="235" height="110" as="geometry" />
        </mxCell>
        <mxCell id="BT9CDqWoZ7SacNBzeMXs-64" style="edgeStyle=orthogonalEdgeStyle;rounded=0;orthogonalLoop=1;jettySize=auto;html=1;entryX=0.5;entryY=0;entryDx=0;entryDy=0;" edge="1" parent="1" source="BT9CDqWoZ7SacNBzeMXs-62" target="BT9CDqWoZ7SacNBzeMXs-63">
          <mxGeometry relative="1" as="geometry" />
        </mxCell>
        <mxCell id="BT9CDqWoZ7SacNBzeMXs-79" style="edgeStyle=orthogonalEdgeStyle;rounded=0;orthogonalLoop=1;jettySize=auto;html=1;entryX=0;entryY=0.5;entryDx=0;entryDy=0;" edge="1" parent="1" source="BT9CDqWoZ7SacNBzeMXs-62" target="BT9CDqWoZ7SacNBzeMXs-77">
          <mxGeometry relative="1" as="geometry" />
        </mxCell>
        <mxCell id="BT9CDqWoZ7SacNBzeMXs-80" style="edgeStyle=orthogonalEdgeStyle;rounded=0;orthogonalLoop=1;jettySize=auto;html=1;entryX=0;entryY=0.5;entryDx=0;entryDy=0;" edge="1" parent="1" source="BT9CDqWoZ7SacNBzeMXs-62" target="BT9CDqWoZ7SacNBzeMXs-78">
          <mxGeometry relative="1" as="geometry" />
        </mxCell>
        <mxCell id="BT9CDqWoZ7SacNBzeMXs-62" value="&lt;p style=&quot;margin: 4px 0px 0px;&quot;&gt;&lt;i&gt;&amp;lt;&amp;lt;Component&amp;gt;&amp;gt;&lt;/i&gt;&lt;br&gt;&lt;b&gt;SpreadsheetPage&lt;/b&gt;&lt;/p&gt;&lt;p style=&quot;margin: 0px 0px 0px 4px;&quot;&gt;&lt;br&gt;&lt;/p&gt;" style="html=1;whiteSpace=wrap;fillColor=#dae8fc;strokeColor=#6c8ebf;" vertex="1" parent="1">
          <mxGeometry x="40" y="40" width="170" height="60" as="geometry" />
        </mxCell>
        <mxCell id="BT9CDqWoZ7SacNBzeMXs-72" style="edgeStyle=orthogonalEdgeStyle;rounded=0;orthogonalLoop=1;jettySize=auto;html=1;entryX=0.5;entryY=0;entryDx=0;entryDy=0;endArrow=none;endFill=0;" edge="1" parent="1" source="BT9CDqWoZ7SacNBzeMXs-63" target="BT9CDqWoZ7SacNBzeMXs-68">
          <mxGeometry relative="1" as="geometry" />
        </mxCell>
        <mxCell id="BT9CDqWoZ7SacNBzeMXs-83" style="edgeStyle=orthogonalEdgeStyle;rounded=0;orthogonalLoop=1;jettySize=auto;html=1;entryX=0;entryY=0.75;entryDx=0;entryDy=0;" edge="1" parent="1" source="BT9CDqWoZ7SacNBzeMXs-63" target="BT9CDqWoZ7SacNBzeMXs-76">
          <mxGeometry relative="1" as="geometry">
            <Array as="points">
              <mxPoint x="260" y="170" />
              <mxPoint x="260" y="250" />
            </Array>
          </mxGeometry>
        </mxCell>
        <mxCell id="BT9CDqWoZ7SacNBzeMXs-111" style="edgeStyle=orthogonalEdgeStyle;rounded=0;orthogonalLoop=1;jettySize=auto;html=1;entryX=1;entryY=0.5;entryDx=0;entryDy=0;" edge="1" parent="1" source="BT9CDqWoZ7SacNBzeMXs-63" target="BT9CDqWoZ7SacNBzeMXs-109">
          <mxGeometry relative="1" as="geometry" />
        </mxCell>
        <mxCell id="BT9CDqWoZ7SacNBzeMXs-115" style="edgeStyle=orthogonalEdgeStyle;rounded=0;orthogonalLoop=1;jettySize=auto;html=1;entryX=0.5;entryY=0;entryDx=0;entryDy=0;" edge="1" parent="1" source="BT9CDqWoZ7SacNBzeMXs-63" target="BT9CDqWoZ7SacNBzeMXs-112">
          <mxGeometry relative="1" as="geometry" />
        </mxCell>
        <mxCell id="BT9CDqWoZ7SacNBzeMXs-63" value="&lt;p style=&quot;margin: 4px 0px 0px;&quot;&gt;&lt;i&gt;&amp;lt;&amp;lt;Component&amp;gt;&amp;gt;&lt;/i&gt;&lt;br&gt;&lt;b&gt;SpreadsheetWrapper&lt;/b&gt;&lt;/p&gt;&lt;p style=&quot;margin: 0px 0px 0px 4px;&quot;&gt;&lt;br&gt;&lt;/p&gt;" style="html=1;whiteSpace=wrap;fillColor=#dae8fc;strokeColor=#6c8ebf;" vertex="1" parent="1">
          <mxGeometry x="40" y="140" width="170" height="60" as="geometry" />
        </mxCell>
        <mxCell id="BT9CDqWoZ7SacNBzeMXs-68" value="" style="html=1;whiteSpace=wrap;fillColor=#f5f5f5;fontColor=#333333;strokeColor=#666666;" vertex="1" parent="1">
          <mxGeometry x="50" y="230" width="150" height="130" as="geometry" />
        </mxCell>
        <mxCell id="BT9CDqWoZ7SacNBzeMXs-69" value="children" style="html=1;whiteSpace=wrap;" vertex="1" parent="1">
          <mxGeometry x="60" y="240" width="130" height="30" as="geometry" />
        </mxCell>
        <mxCell id="BT9CDqWoZ7SacNBzeMXs-70" value="&lt;p style=&quot;margin:0px;margin-top:4px;text-align:center;&quot;&gt;&lt;i&gt;&amp;lt;&amp;lt;Component&amp;gt;&amp;gt;&lt;/i&gt;&lt;br&gt;&lt;b&gt;SpreadsheetCell&lt;/b&gt;&lt;/p&gt;&lt;hr size=&quot;1&quot; style=&quot;border-style:solid;&quot;&gt;&lt;p style=&quot;margin:0px;margin-left:4px;&quot;&gt;+ rowIndex: Number&lt;br&gt;+ colIndex: Number&lt;/p&gt;" style="verticalAlign=top;align=left;overflow=fill;html=1;whiteSpace=wrap;fillColor=#dae8fc;strokeColor=#6c8ebf;" vertex="1" parent="1">
          <mxGeometry x="240" y="280" width="212" height="80" as="geometry" />
        </mxCell>
        <mxCell id="BT9CDqWoZ7SacNBzeMXs-73" style="edgeStyle=orthogonalEdgeStyle;rounded=0;orthogonalLoop=1;jettySize=auto;html=1;entryX=0.363;entryY=0.014;entryDx=0;entryDy=0;entryPerimeter=0;" edge="1" parent="1" source="BT9CDqWoZ7SacNBzeMXs-68" target="BT9CDqWoZ7SacNBzeMXs-53">
          <mxGeometry relative="1" as="geometry" />
        </mxCell>
        <mxCell id="BT9CDqWoZ7SacNBzeMXs-74" value="selectedRows" style="html=1;whiteSpace=wrap;" vertex="1" parent="1">
          <mxGeometry x="60" y="280" width="130" height="30" as="geometry" />
        </mxCell>
        <mxCell id="BT9CDqWoZ7SacNBzeMXs-75" value="selectedCols" style="html=1;whiteSpace=wrap;" vertex="1" parent="1">
          <mxGeometry x="60" y="320" width="130" height="30" as="geometry" />
        </mxCell>
        <mxCell id="BT9CDqWoZ7SacNBzeMXs-76" value="&lt;p style=&quot;margin:0px;margin-top:4px;text-align:center;&quot;&gt;&lt;i&gt;&amp;lt;&amp;lt;Hook&amp;gt;&amp;gt;&lt;/i&gt;&lt;br&gt;&lt;b&gt;useSpreadsheet&lt;/b&gt;&lt;/p&gt;&lt;hr size=&quot;1&quot; style=&quot;border-style:solid;&quot;&gt;&lt;p style=&quot;margin:0px;margin-left:4px;&quot;&gt;+ cells: CellsHandler&lt;br&gt;+ history: HistoryHandler&lt;/p&gt;&lt;p style=&quot;margin:0px;margin-left:4px;&quot;&gt;+ file: FileHandler&lt;/p&gt;&lt;hr size=&quot;1&quot; style=&quot;border-style:solid;&quot;&gt;&lt;p style=&quot;margin:0px;margin-left:4px;&quot;&gt;+ clear(): Void&lt;br&gt;&lt;/p&gt;" style="verticalAlign=top;align=left;overflow=fill;html=1;whiteSpace=wrap;fillColor=#f8cecc;strokeColor=#b85450;" vertex="1" parent="1">
          <mxGeometry x="570" y="160" width="235" height="120" as="geometry" />
        </mxCell>
        <mxCell id="BT9CDqWoZ7SacNBzeMXs-81" style="edgeStyle=orthogonalEdgeStyle;rounded=0;orthogonalLoop=1;jettySize=auto;html=1;entryX=0;entryY=0.25;entryDx=0;entryDy=0;" edge="1" parent="1" source="BT9CDqWoZ7SacNBzeMXs-77" target="BT9CDqWoZ7SacNBzeMXs-76">
          <mxGeometry relative="1" as="geometry" />
        </mxCell>
        <mxCell id="BT9CDqWoZ7SacNBzeMXs-77" value="&lt;p style=&quot;margin: 4px 0px 0px;&quot;&gt;&lt;i&gt;&amp;lt;&amp;lt;Component&amp;gt;&amp;gt;&lt;/i&gt;&lt;br&gt;&lt;b&gt;Toolbar&lt;/b&gt;&lt;/p&gt;&lt;p style=&quot;margin: 0px 0px 0px 4px;&quot;&gt;&lt;br&gt;&lt;/p&gt;" style="html=1;whiteSpace=wrap;fillColor=#dae8fc;strokeColor=#6c8ebf;" vertex="1" parent="1">
          <mxGeometry x="300" y="40" width="170" height="60" as="geometry" />
        </mxCell>
        <mxCell id="BT9CDqWoZ7SacNBzeMXs-82" style="edgeStyle=orthogonalEdgeStyle;rounded=0;orthogonalLoop=1;jettySize=auto;html=1;entryX=0;entryY=0.5;entryDx=0;entryDy=0;" edge="1" parent="1" source="BT9CDqWoZ7SacNBzeMXs-78" target="BT9CDqWoZ7SacNBzeMXs-76">
          <mxGeometry relative="1" as="geometry">
            <Array as="points">
              <mxPoint x="500" y="150" />
              <mxPoint x="500" y="220" />
            </Array>
          </mxGeometry>
        </mxCell>
        <mxCell id="BT9CDqWoZ7SacNBzeMXs-78" value="&lt;p style=&quot;margin: 4px 0px 0px;&quot;&gt;&lt;i&gt;&amp;lt;&amp;lt;Component&amp;gt;&amp;gt;&lt;/i&gt;&lt;br&gt;&lt;b&gt;Sidebar&lt;/b&gt;&lt;/p&gt;&lt;p style=&quot;margin: 0px 0px 0px 4px;&quot;&gt;&lt;br&gt;&lt;/p&gt;" style="html=1;whiteSpace=wrap;fillColor=#dae8fc;strokeColor=#6c8ebf;" vertex="1" parent="1">
          <mxGeometry x="300" y="120" width="170" height="60" as="geometry" />
        </mxCell>
        <mxCell id="BT9CDqWoZ7SacNBzeMXs-71" style="edgeStyle=orthogonalEdgeStyle;rounded=0;orthogonalLoop=1;jettySize=auto;html=1;entryX=0;entryY=0.5;entryDx=0;entryDy=0;endArrow=oval;endFill=1;exitX=1;exitY=0.5;exitDx=0;exitDy=0;" edge="1" parent="1" source="BT9CDqWoZ7SacNBzeMXs-69" target="BT9CDqWoZ7SacNBzeMXs-70">
          <mxGeometry relative="1" as="geometry" />
        </mxCell>
        <mxCell id="BT9CDqWoZ7SacNBzeMXs-89" value="&lt;b&gt;Lexer&lt;/b&gt;" style="swimlane;fontStyle=0;childLayout=stackLayout;horizontal=1;startSize=26;fillColor=#d5e8d4;horizontalStack=0;resizeParent=1;resizeParentMax=0;resizeLast=0;collapsible=1;marginBottom=0;whiteSpace=wrap;html=1;strokeColor=#82b366;" vertex="1" parent="1">
          <mxGeometry x="-230" y="670" width="210" height="78" as="geometry" />
        </mxCell>
        <mxCell id="BT9CDqWoZ7SacNBzeMXs-90" value="+ tokens: Token[]" style="text;strokeColor=none;fillColor=none;align=left;verticalAlign=top;spacingLeft=4;spacingRight=4;overflow=hidden;rotatable=0;points=[[0,0.5],[1,0.5]];portConstraint=eastwest;whiteSpace=wrap;html=1;" vertex="1" parent="BT9CDqWoZ7SacNBzeMXs-89">
          <mxGeometry y="26" width="210" height="26" as="geometry" />
        </mxCell>
        <mxCell id="BT9CDqWoZ7SacNBzeMXs-91" value="+ tokenize(String): Token[]" style="text;strokeColor=none;fillColor=none;align=left;verticalAlign=top;spacingLeft=4;spacingRight=4;overflow=hidden;rotatable=0;points=[[0,0.5],[1,0.5]];portConstraint=eastwest;whiteSpace=wrap;html=1;" vertex="1" parent="BT9CDqWoZ7SacNBzeMXs-89">
          <mxGeometry y="52" width="210" height="26" as="geometry" />
        </mxCell>
        <mxCell id="BT9CDqWoZ7SacNBzeMXs-101" style="edgeStyle=orthogonalEdgeStyle;rounded=0;orthogonalLoop=1;jettySize=auto;html=1;" edge="1" parent="1" source="BT9CDqWoZ7SacNBzeMXs-93" target="BT9CDqWoZ7SacNBzeMXs-89">
          <mxGeometry relative="1" as="geometry" />
        </mxCell>
        <mxCell id="BT9CDqWoZ7SacNBzeMXs-93" value="&lt;b&gt;Parser&lt;/b&gt;" style="swimlane;fontStyle=0;childLayout=stackLayout;horizontal=1;startSize=26;fillColor=#d5e8d4;horizontalStack=0;resizeParent=1;resizeParentMax=0;resizeLast=0;collapsible=1;marginBottom=0;whiteSpace=wrap;html=1;strokeColor=#82b366;" vertex="1" parent="1">
          <mxGeometry x="-230" y="562" width="210" height="78" as="geometry" />
        </mxCell>
        <mxCell id="BT9CDqWoZ7SacNBzeMXs-94" value="+ ast: Expression" style="text;strokeColor=none;fillColor=none;align=left;verticalAlign=top;spacingLeft=4;spacingRight=4;overflow=hidden;rotatable=0;points=[[0,0.5],[1,0.5]];portConstraint=eastwest;whiteSpace=wrap;html=1;" vertex="1" parent="BT9CDqWoZ7SacNBzeMXs-93">
          <mxGeometry y="26" width="210" height="26" as="geometry" />
        </mxCell>
        <mxCell id="BT9CDqWoZ7SacNBzeMXs-95" value="+ parse(String): Expression" style="text;strokeColor=none;fillColor=none;align=left;verticalAlign=top;spacingLeft=4;spacingRight=4;overflow=hidden;rotatable=0;points=[[0,0.5],[1,0.5]];portConstraint=eastwest;whiteSpace=wrap;html=1;" vertex="1" parent="BT9CDqWoZ7SacNBzeMXs-93">
          <mxGeometry y="52" width="210" height="26" as="geometry" />
        </mxCell>
        <mxCell id="BT9CDqWoZ7SacNBzeMXs-102" style="edgeStyle=orthogonalEdgeStyle;rounded=0;orthogonalLoop=1;jettySize=auto;html=1;entryX=0.5;entryY=0;entryDx=0;entryDy=0;" edge="1" parent="1" source="BT9CDqWoZ7SacNBzeMXs-96" target="BT9CDqWoZ7SacNBzeMXs-93">
          <mxGeometry relative="1" as="geometry" />
        </mxCell>
        <mxCell id="BT9CDqWoZ7SacNBzeMXs-96" value="&lt;b&gt;Runtime&lt;/b&gt;" style="swimlane;fontStyle=0;childLayout=stackLayout;horizontal=1;startSize=26;fillColor=#d5e8d4;horizontalStack=0;resizeParent=1;resizeParentMax=0;resizeLast=0;collapsible=1;marginBottom=0;whiteSpace=wrap;html=1;strokeColor=#82b366;" vertex="1" parent="1">
          <mxGeometry x="-230" y="476" width="210" height="52" as="geometry" />
        </mxCell>
        <mxCell id="BT9CDqWoZ7SacNBzeMXs-98" value="+ run(Expression): Value" style="text;strokeColor=none;fillColor=none;align=left;verticalAlign=top;spacingLeft=4;spacingRight=4;overflow=hidden;rotatable=0;points=[[0,0.5],[1,0.5]];portConstraint=eastwest;whiteSpace=wrap;html=1;" vertex="1" parent="BT9CDqWoZ7SacNBzeMXs-96">
          <mxGeometry y="26" width="210" height="26" as="geometry" />
        </mxCell>
        <mxCell id="BT9CDqWoZ7SacNBzeMXs-105" style="edgeStyle=orthogonalEdgeStyle;rounded=0;orthogonalLoop=1;jettySize=auto;html=1;" edge="1" parent="1" source="BT9CDqWoZ7SacNBzeMXs-99" target="BT9CDqWoZ7SacNBzeMXs-96">
          <mxGeometry relative="1" as="geometry" />
        </mxCell>
        <mxCell id="BT9CDqWoZ7SacNBzeMXs-99" value="&lt;b&gt;Evaluator&lt;/b&gt;" style="swimlane;fontStyle=0;childLayout=stackLayout;horizontal=1;startSize=26;fillColor=#d5e8d4;horizontalStack=0;resizeParent=1;resizeParentMax=0;resizeLast=0;collapsible=1;marginBottom=0;whiteSpace=wrap;html=1;strokeColor=#82b366;" vertex="1" parent="1">
          <mxGeometry x="-230" y="390" width="210" height="52" as="geometry" />
        </mxCell>
        <mxCell id="BT9CDqWoZ7SacNBzeMXs-100" value="+ evaluate(CellID[], Number): History" style="text;strokeColor=none;fillColor=none;align=left;verticalAlign=top;spacingLeft=4;spacingRight=4;overflow=hidden;rotatable=0;points=[[0,0.5],[1,0.5]];portConstraint=eastwest;whiteSpace=wrap;html=1;" vertex="1" parent="BT9CDqWoZ7SacNBzeMXs-99">
          <mxGeometry y="26" width="210" height="26" as="geometry" />
        </mxCell>
        <mxCell id="BT9CDqWoZ7SacNBzeMXs-109" value="&lt;p style=&quot;margin:0px;margin-top:4px;text-align:center;&quot;&gt;&lt;i&gt;&amp;lt;&amp;lt;Hook&amp;gt;&amp;gt;&lt;/i&gt;&lt;br&gt;&lt;b&gt;useSelection&lt;/b&gt;&lt;/p&gt;&lt;hr size=&quot;1&quot; style=&quot;border-style:solid;&quot;&gt;&lt;p style=&quot;margin:0px;margin-left:4px;&quot;&gt;+ selectedCels: Set&amp;lt;CellID&amp;gt;&lt;br&gt;+ selectionListeners: EventListener[]&lt;/p&gt;&lt;p style=&quot;margin:0px;margin-left:4px;&quot;&gt;+ file: FileHandler&lt;/p&gt;&lt;hr size=&quot;1&quot; style=&quot;border-style:solid;&quot;&gt;&lt;p style=&quot;margin:0px;margin-left:4px;&quot;&gt;+ setSelectedCells(Set&amp;lt;CellID&amp;gt;): Void&lt;/p&gt;&lt;p style=&quot;margin:0px;margin-left:4px;&quot;&gt;+ isCellSelected(CellID): Boolean&lt;br&gt;&lt;/p&gt;" style="verticalAlign=top;align=left;overflow=fill;html=1;whiteSpace=wrap;fillColor=#f8cecc;strokeColor=#b85450;" vertex="1" parent="1">
          <mxGeometry x="-280" y="-20" width="235" height="140" as="geometry" />
        </mxCell>
        <mxCell id="BT9CDqWoZ7SacNBzeMXs-114" style="edgeStyle=orthogonalEdgeStyle;rounded=0;orthogonalLoop=1;jettySize=auto;html=1;entryX=0.5;entryY=0;entryDx=0;entryDy=0;" edge="1" parent="1" source="BT9CDqWoZ7SacNBzeMXs-112" target="BT9CDqWoZ7SacNBzeMXs-113">
          <mxGeometry relative="1" as="geometry" />
        </mxCell>
        <mxCell id="BT9CDqWoZ7SacNBzeMXs-112" value="&lt;p style=&quot;margin: 4px 0px 0px;&quot;&gt;&lt;i&gt;&amp;lt;&amp;lt;Function&amp;gt;&amp;gt;&lt;/i&gt;&lt;br&gt;&lt;b&gt;getSortedCells&lt;/b&gt;&lt;/p&gt;&lt;p style=&quot;margin: 0px 0px 0px 4px;&quot;&gt;&lt;br&gt;&lt;/p&gt;" style="html=1;whiteSpace=wrap;fillColor=#dae8fc;strokeColor=#6c8ebf;" vertex="1" parent="1">
          <mxGeometry x="-210" y="200" width="170" height="60" as="geometry" />
        </mxCell>
        <mxCell id="BT9CDqWoZ7SacNBzeMXs-116" style="edgeStyle=orthogonalEdgeStyle;rounded=0;orthogonalLoop=1;jettySize=auto;html=1;entryX=0.5;entryY=0;entryDx=0;entryDy=0;" edge="1" parent="1" source="BT9CDqWoZ7SacNBzeMXs-113" target="BT9CDqWoZ7SacNBzeMXs-99">
          <mxGeometry relative="1" as="geometry" />
        </mxCell>
        <mxCell id="BT9CDqWoZ7SacNBzeMXs-113" value="&lt;p style=&quot;margin: 4px 0px 0px;&quot;&gt;&lt;i&gt;&amp;lt;&amp;lt;Function&amp;gt;&amp;gt;&lt;/i&gt;&lt;br&gt;&lt;b&gt;topologicalSort&lt;/b&gt;&lt;/p&gt;&lt;p style=&quot;margin: 0px 0px 0px 4px;&quot;&gt;&lt;br&gt;&lt;/p&gt;" style="html=1;whiteSpace=wrap;fillColor=#dae8fc;strokeColor=#6c8ebf;" vertex="1" parent="1">
          <mxGeometry x="-210" y="290" width="170" height="60" as="geometry" />
        </mxCell>
      </root>
    </mxGraphModel>
  </diagram>
</mxfile>
